<svg width="24" height="24" viewBox="0 0 24 24" fill="none" xmlns="http://www.w3.org/2000/svg">
<path d="M7.11003 5.96003L16.13 2.95003C20.18 1.60003 22.38 3.81003 21.04 7.86003L18.03 16.88C16.01 22.95 12.69 22.95 10.67 16.88L9.78003 14.2L7.10003 13.31C1.04003 11.3 1.04003 7.99003 7.11003 5.96003Z" fill="#FFD500"/>
<path d="M12.12 11.6301L15.93 7.81006Z" fill="black"/>
<path d="M12.1201 12.38C11.9301 12.38 11.7401 12.31 11.5901 12.16C11.3001 11.87 11.3001 11.39 11.5901 11.1L15.3901 7.28C15.6801 6.99 16.1601 6.99 16.4501 7.28C16.7401 7.57 16.7401 8.05 16.4501 8.34L12.6501 12.16C12.5001 12.3 12.3101 12.38 12.1201 12.38Z" fill="black"/>
</svg>
