<svg width="50" height="51" viewBox="0 0 50 51" fill="none" xmlns="http://www.w3.org/2000/svg">
<path fill-rule="evenodd" clip-rule="evenodd" d="M15.3938 0.88279C12.7313 5.02746 11.4 9.39866 11.4 13.9964C11.4 16.8157 12.03 19.5723 13.29 22.2663C14.55 24.9603 15.93 27.1844 17.43 28.9386C21.45 33.6375 23.46 37.5218 23.46 40.5917C23.46 43.8495 21.09 46.8255 16.35 49.5195L16.4693 49.6864C6.86258 46.1993 0 36.9909 0 26.1797V23.9706C0 13.5673 6.35451 4.6481 15.3938 0.88279ZM37.9534 2.58389C31.5311 6.95974 28.32 11.547 28.32 16.3458C28.32 18.9145 29.67 22.2663 32.37 26.4013C35.13 30.5362 36.51 33.7628 36.51 36.0808C36.51 42.0517 33.6519 47.0278 27.9358 51.0091C40.3595 49.5559 50 38.9936 50 26.1797V23.9706C50 14.9055 45.1752 6.96731 37.9534 2.58389Z" fill="#FFD400"/>
</svg>
