<svg width="163" height="50" viewBox="0 0 163 50" fill="none" xmlns="http://www.w3.org/2000/svg">
<path d="M36.2094 49.6771C33.8919 49.6771 31.8777 49.1779 30.1666 48.1796C28.4772 47.1596 27.1669 45.7489 26.2355 43.9476C25.3042 42.1463 24.8385 40.0412 24.8385 37.6322V24.22C24.8385 21.811 25.3042 19.7059 26.2355 17.9046C27.1669 16.0816 28.4772 14.6709 30.1666 13.6726C31.8777 12.6743 33.8919 12.1751 36.2094 12.1751C39.6965 12.1751 42.458 13.282 44.4939 15.4956C46.5515 17.6876 47.5803 20.5957 47.5803 24.22V37.6322C47.5803 41.2348 46.5515 44.1429 44.4939 46.3566C42.458 48.5703 39.6965 49.6771 36.2094 49.6771ZM36.2094 41.5386C37.2491 41.5386 38.0504 41.2457 38.6136 40.6597C39.1767 40.052 39.4583 39.2599 39.4583 38.2833V23.569C39.4583 22.5923 39.1767 21.811 38.6136 21.2251C38.0504 20.6174 37.2491 20.3136 36.2094 20.3136C35.1698 20.3136 34.3684 20.6174 33.8053 21.2251C33.2422 21.811 32.9606 22.5923 32.9606 23.569V38.2833C32.9606 39.2599 33.2422 40.052 33.8053 40.6597C34.3684 41.2457 35.1698 41.5386 36.2094 41.5386Z" fill="black"/>
<path d="M64.5097 49.6771C62.1922 49.6771 60.178 49.1779 58.4669 48.1796C56.7775 47.1596 55.4672 45.7489 54.5358 43.9476C53.6045 42.1463 53.1388 40.0412 53.1388 37.6322V24.22C53.1388 21.811 53.6045 19.7059 54.5358 17.9046C55.4672 16.0816 56.7775 14.6709 58.4669 13.6726C60.178 12.6743 62.1922 12.1751 64.5097 12.1751C67.9968 12.1751 70.7583 13.282 72.7942 15.4956C74.8518 17.6876 75.8806 20.5957 75.8806 24.22V24.8711H67.7586V23.569C67.7586 22.5923 67.477 21.811 66.9139 21.2251C66.3507 20.6174 65.5494 20.3136 64.5097 20.3136C63.4701 20.3136 62.6687 20.6174 62.1056 21.2251C61.5425 21.811 61.2609 22.5923 61.2609 23.569V38.2833C61.2609 39.2599 61.5425 40.052 62.1056 40.6597C62.6687 41.2457 63.4701 41.5386 64.5097 41.5386C65.5494 41.5386 66.3507 41.2457 66.9139 40.6597C67.477 40.052 67.7586 39.2599 67.7586 38.2833V36.9811H75.8806V37.6322C75.8806 41.2348 74.8518 44.1429 72.7942 46.3566C70.7583 48.5703 67.9968 49.6771 64.5097 49.6771Z" fill="black"/>
<path d="M81.4635 48.8307V13.0215H89.5856V48.8307H81.4635ZM81.4635 10.4172V1.95323H89.5856V10.4172H81.4635Z" fill="black"/>
<path d="M97.2635 48.8307V0H105.386V48.8307H97.2635Z" fill="black"/>
<path d="M120.081 49.6771C117.157 49.6771 114.926 48.7656 113.388 46.9426C111.872 45.0979 111.114 42.7648 111.114 39.9435C111.114 38.3158 111.352 36.9377 111.829 35.8092C112.305 34.6806 112.933 33.7366 113.713 32.977C114.515 32.1957 115.403 31.5338 116.377 30.9912C117.482 30.3618 118.619 29.841 119.788 29.4286C120.958 28.9946 122.041 28.5714 123.037 28.159C124.034 27.725 124.835 27.2041 125.441 26.5965C126.07 25.9888 126.384 25.1966 126.384 24.22V23.569C126.384 22.5923 126.102 21.811 125.539 21.2251C124.976 20.6174 124.174 20.3136 123.135 20.3136C122.095 20.3136 121.294 20.6174 120.731 21.2251C120.167 21.811 119.886 22.5923 119.886 23.569V25.5222H111.764V24.22C111.764 20.5957 112.793 17.6876 114.85 15.4956C116.908 13.282 119.669 12.1751 123.135 12.1751C125.452 12.1751 127.456 12.6743 129.145 13.6726C130.856 14.6709 132.177 16.0816 133.109 17.9046C134.04 19.7059 134.506 21.811 134.506 24.22V48.8307H126.384V43.2314L127.813 45.0545C127.142 46.5519 126.134 47.7022 124.792 48.5052C123.47 49.2864 121.9 49.6771 120.081 49.6771ZM122.745 42.1897C123.655 42.1897 124.488 41.9184 125.246 41.3759C126.005 40.8333 126.384 39.8676 126.384 38.4786V33.4653C125.82 33.9645 125.127 34.3551 124.304 34.6372C123.481 34.8977 122.637 35.2449 121.77 35.679C120.904 36.0913 120.265 36.5579 119.853 37.0788C119.442 37.5779 119.236 38.1965 119.236 38.9343C119.236 39.7807 119.529 40.5403 120.113 41.2131C120.698 41.8642 121.575 42.1897 122.745 42.1897Z" fill="black"/>
<path d="M139.537 48.8307V42.4502L154.871 17.7744L156.756 21.16H139.537V13.0215H162.279V19.4021L147.594 44.0778L145.645 40.6922H162.279V48.8307H139.537Z" fill="black"/>
<path d="M0 17.4367C0 11.078 3.3532 5.26577 10.0596 0L22.2802 8.19672C16.766 11.7238 14.0089 15.4247 14.0089 19.2996C14.0089 21.3363 15.1267 23.994 17.3621 27.2727C19.6473 30.5514 20.7899 33.1098 20.7899 34.9478C20.7899 41.4555 16.3189 46.4729 7.37705 50L4.09836 45.6036C8.02285 43.4675 9.9851 41.1078 9.9851 38.5246C9.9851 36.0904 8.32091 33.0104 4.99255 29.2847C3.75062 27.8937 2.60805 26.1302 1.56483 23.994C0.521609 21.8579 0 19.6721 0 17.4367Z" fill="#FFD400"/>
</svg>
